<?xml version="1.0" encoding="UTF-8" standalone="no"?>
<!-- Created with Inkscape (http://www.inkscape.org/) -->

<svg
   xmlns:dc="http://purl.org/dc/elements/1.1/"
   xmlns:cc="http://creativecommons.org/ns#"
   xmlns:rdf="http://www.w3.org/1999/02/22-rdf-syntax-ns#"
   xmlns:svg="http://www.w3.org/2000/svg"
   xmlns="http://www.w3.org/2000/svg"
   xmlns:sodipodi="http://sodipodi.sourceforge.net/DTD/sodipodi-0.dtd"
   xmlns:inkscape="http://www.inkscape.org/namespaces/inkscape"
   width="130"
   height="68.083458"
   id="svg2"
   version="1.1"
   inkscape:version="0.48.3.1 r9886"
   sodipodi:docname="gpcr.inkscape.svg">
  <defs
     id="defs4" />
  <sodipodi:namedview
     id="base"
     pagecolor="#ffffff"
     bordercolor="#666666"
     borderopacity="1.0"
     inkscape:pageopacity="0.0"
     inkscape:pageshadow="2"
     inkscape:zoom="3.9597981"
     inkscape:cx="99.881755"
     inkscape:cy="11.657632"
     inkscape:document-units="px"
     inkscape:current-layer="layer1"
     showgrid="false"
     inkscape:window-width="956"
     inkscape:window-height="1023"
     inkscape:window-x="960"
     inkscape:window-y="36"
     inkscape:window-maximized="0"
     fit-margin-top="0"
     fit-margin-left="0"
     fit-margin-right="0"
     fit-margin-bottom="0">
    <inkscape:grid
       type="xygrid"
       id="grid3781"
       empspacing="5"
       visible="true"
       enabled="true"
       snapvisiblegridlinesonly="true"
       originx="1845.8438px"
       originy="-595.86218px" />
  </sodipodi:namedview>
  <metadata
     id="metadata7">
    <rdf:RDF>
      <cc:Work
         rdf:about="">
        <dc:format>image/svg+xml</dc:format>
        <dc:type
           rdf:resource="http://purl.org/dc/dcmitype/StillImage" />
        <dc:title />
      </cc:Work>
    </rdf:RDF>
  </metadata>
  <g
     inkscape:label="Layer 1"
     inkscape:groupmode="layer"
     id="layer1"
     transform="translate(1845.8438,-388.41654)">
    <rect
       style="color:#000000;fill:#3e8682;fill-opacity:1;fill-rule:nonzero;stroke:#000000;stroke-width:0.59855294;stroke-miterlimit:4;stroke-opacity:1;stroke-dasharray:none;marker:none;visibility:visible;display:inline;overflow:visible;enable-background:accumulate"
       id="rect2985"
       width="129.40144"
       height="11.686034"
       x="-1845.5579"
       y="418.7489" />
    <path
       style="color:#000000;fill:#46c66e;fill-opacity:1;fill-rule:nonzero;stroke:#000000;stroke-width:0.59855294;stroke-miterlimit:4;stroke-opacity:1;stroke-dasharray:none;marker:none;visibility:visible;display:inline;overflow:visible;enable-background:accumulate"
       d="m -1814.7654,395.95263 c -1.2991,1.57541 -2.0762,3.59718 -2.0762,5.80783 l 0,45.31857 c 0,5.05292 4.0688,9.12169 9.1217,9.12169 0.3222,0 0.6405,-0.0176 0.9539,-0.0499 -0.6023,-1.03932 -0.9477,-2.24441 -0.9477,-3.53208 0,-3.89841 3.1595,-7.05794 7.058,-7.05794 0.715,0 1.404,0.10473 2.0544,0.3024 l 0,-44.10276 c 0,-2.19875 -0.7679,-4.21119 -2.0544,-5.78289 -0.084,3.82504 -3.2095,6.89894 -7.0549,6.89894 -3.8536,0 -6.9833,-3.08732 -7.0548,-6.92388 z"
       id="rect2987"
       inkscape:connector-curvature="0" />
    <path
       sodipodi:type="arc"
       style="color:#000000;fill:#fc3f3f;fill-opacity:1;fill-rule:nonzero;stroke:#000000;stroke-width:5.93575668;stroke-miterlimit:4;stroke-opacity:1;stroke-dasharray:none;marker:none;visibility:visible;display:inline;overflow:visible;enable-background:accumulate"
       id="path3760"
       sodipodi:cx="-1452.8572"
       sodipodi:cy="-154.78067"
       sodipodi:rx="70"
       sodipodi:ry="70"
       d="m -1382.8572,-154.78067 c 0,38.65993 -31.34,70 -70,70 -38.6599,0 -70,-31.34007 -70,-70 0,-38.65993 31.3401,-70 70,-70 38.66,0 70,31.34007 70,70 z"
       transform="matrix(0.10083853,0,0,0.10083853,-1661.0488,411.38252)" />
  </g>
</svg>
