<?xml version="1.0" encoding="UTF-8" standalone="no"?>
<!-- Created with Inkscape (http://www.inkscape.org/) -->

<svg
   xmlns:dc="http://purl.org/dc/elements/1.1/"
   xmlns:cc="http://creativecommons.org/ns#"
   xmlns:rdf="http://www.w3.org/1999/02/22-rdf-syntax-ns#"
   xmlns:svg="http://www.w3.org/2000/svg"
   xmlns="http://www.w3.org/2000/svg"
   version="1.1"
   width="130"
   height="68.083458"
   id="svg2">
  <defs
     id="defs4" />
  <metadata
     id="metadata7">
    <rdf:RDF>
      <cc:Work
         rdf:about="">
        <dc:format>image/svg+xml</dc:format>
        <dc:type
           rdf:resource="http://purl.org/dc/dcmitype/StillImage" />
        <dc:title></dc:title>
      </cc:Work>
    </rdf:RDF>
  </metadata>
  <g
     transform="translate(1845.8438,-388.41654)"
     id="layer1">
    <rect
       width="129.40144"
       height="11.686034"
       x="-1845.5579"
       y="418.7489"
       id="rect2985"
       style="color:#000000;fill:#3e8682;fill-opacity:1;fill-rule:nonzero;stroke:#000000;stroke-width:0.59855294;stroke-miterlimit:4;stroke-opacity:1;stroke-dasharray:none;marker:none;visibility:visible;display:inline;overflow:visible;enable-background:accumulate" />
    <path
       d="m -1814.7654,395.95263 c -1.2991,1.57541 -2.0762,3.59718 -2.0762,5.80783 l 0,45.31857 c 0,5.05292 4.0688,9.12169 9.1217,9.12169 0.3222,0 0.6405,-0.0176 0.9539,-0.0499 -0.6023,-1.03932 -0.9477,-2.24441 -0.9477,-3.53208 0,-3.89841 3.1595,-7.05794 7.058,-7.05794 0.715,0 1.404,0.10473 2.0544,0.3024 l 0,-44.10276 c 0,-2.19875 -0.7679,-4.21119 -2.0544,-5.78289 -0.084,3.82504 -3.2095,6.89894 -7.0549,6.89894 -3.8536,0 -6.9833,-3.08732 -7.0548,-6.92388 z"
       id="rect2987"
       style="color:#000000;fill:#46c66e;fill-opacity:1;fill-rule:nonzero;stroke:#000000;stroke-width:0.59855294;stroke-miterlimit:4;stroke-opacity:1;stroke-dasharray:none;marker:none;visibility:visible;display:inline;overflow:visible;enable-background:accumulate" />
    <path
       d="m -1382.8572,-154.78067 a 70,70 0 1 1 -140,0 70,70 0 1 1 140,0 z"
       transform="matrix(0.10083853,0,0,0.10083853,-1661.0488,411.38252)"
       id="path3760"
       style="color:#000000;fill:#fc3f3f;fill-opacity:1;fill-rule:nonzero;stroke:#000000;stroke-width:5.93575668;stroke-miterlimit:4;stroke-opacity:1;stroke-dasharray:none;marker:none;visibility:visible;display:inline;overflow:visible;enable-background:accumulate" />
  </g>
</svg>
